# xmcd
#
# Track frame offsets: 
#        150
#        34395
#        69020
#        86377
#        101197
#        115095
#        130060
#        175782
#        207385
#        228097
#        237037
#        260455
#
# Disc length: 3777 seconds
#
# Revision: 1
# Processed by: cddbd v1.5.2PL0 Copyright (c) Steve Scherf et al.
# Submitted via: ExactAudioCopyFreeDBPlugin 1.0
#
DISCID=950ebf0c
DTITLE=Various Artist - Knitting Factory Tours Europe 1991
DYEAR=1991
DGENRE=Jazz
TTITLE0=James Blood Ulmer - House on Fire
TTITLE1=James Blood Ulmer - Peace and Happiness
TTITLE2=Samm Bennett and Chunk - Shut Up
TTITLE3=Samm Bennett and Chunk - Hell Outta Bessemer
TTITLE4=Samm Bennett and Chunk - All Undone
TTITLE5=Samm Bennett and Chunk - I Found Out
TTITLE6=Thomas Chapin Trio - Ahab's Leg
TTITLE7=Thomas Chapin Trio - Walking Mystery Man
TTITLE8=Gary Lucas - Autobahn
TTITLE9=Gary Lucas - Third World Two
TTITLE10=Gary Lucas - Comicosmics
TTITLE11=Gary Lucas - Bra Joe from Kilimanjaro
EXTD=YEAR: 1990
EXTT0=
EXTT1=
EXTT2=
EXTT3=
EXTT4=
EXTT5=
EXTT6=
EXTT7=
EXTT8=
EXTT9=
EXTT10=
EXTT11=
PLAYORDER=
